<svg id="Capa_1" enable-background="new 0 0 512 512" height="512" viewBox="0 0 512 512" width="512" xmlns="http://www.w3.org/2000/svg"><g><g><path clip-rule="evenodd" d="m178.294 53.029v122.88c0 33.647 21.707 62.446 51.814 73.161v-169.084-63.41c0-3.6-2.951-6.548-6.526-6.576h-.085-38.591-.085c-3.575.028-6.526 2.976-6.526 6.576v36.453z" fill="#ffd88e" fill-rule="evenodd"/></g><g><path clip-rule="evenodd" d="m230.107 79.986v169.083c8.115 2.891 16.827 4.479 25.878 4.479 9.08 0 17.791-1.587 25.907-4.479v-169.083z" fill="#ffd88e" fill-rule="evenodd"/></g><g><path clip-rule="evenodd" d="m281.893 79.986v169.083c30.106-10.715 51.814-39.514 51.814-73.161l-.028-159.332c0-3.6-2.923-6.548-6.526-6.576h-.057-38.619-.057c-3.575.028-6.526 2.976-6.526 6.576v63.41z" fill="#ffd88e" fill-rule="evenodd"/></g><g><path clip-rule="evenodd" d="m74.723 16.576v159.332h51.785v-122.879-36.453c0-3.6-2.923-6.548-6.526-6.576h-.057-38.619-.057c-3.603.028-6.526 2.976-6.526 6.576z" fill="#ffd88e" fill-rule="evenodd"/></g><g><path clip-rule="evenodd" d="m126.508 53.029h51.785v122.88h-51.785z" fill="#ffd88e" fill-rule="evenodd"/></g><g><path clip-rule="evenodd" d="m333.706 53.029h51.785v122.88h-51.785z" fill="#ffd88e" fill-rule="evenodd"/></g><g><path clip-rule="evenodd" d="m385.492 53.029v122.88h51.785v-159.333c0-3.6-2.923-6.548-6.526-6.576h-.057-38.619-.057c-3.604.028-6.526 2.976-6.526 6.576z" fill="#ffd88e" fill-rule="evenodd"/></g><g><g><path clip-rule="evenodd" d="m61.5 175.909 36.519 243.321c104.791-36.396 211.171-36.396 315.961 0l36.52-243.321h-13.223-51.785-51.785c0 33.647-21.707 62.446-51.814 73.161-8.115 2.891-16.827 4.479-25.907 4.479-9.052 0-17.763-1.587-25.878-4.479-30.106-10.715-51.814-39.514-51.814-73.161h-51.785-51.786z" fill="#ff7d95" fill-rule="evenodd"/></g></g><g><path clip-rule="evenodd" d="m413.981 419.23c-104.791-36.396-211.171-36.396-315.961 0l12.428 82.77h291.104z" fill="#fff" fill-rule="evenodd"/></g><g><path d="m458.091 169.398c-1.9-2.215-4.672-3.49-7.591-3.49h-3.223v-149.332c0-9.14-7.439-16.576-16.583-16.576h-38.619c-9.144 0-16.583 7.436-16.583 16.576v26.453h-31.809l-.005-26.453c0-9.14-7.439-16.576-16.583-16.576h-38.619c-9.144 0-16.583 7.436-16.583 16.576v53.41h-31.785v-53.41c0-9.14-7.452-16.576-16.612-16.576h-38.59c-9.16 0-16.612 7.436-16.612 16.576v26.453h-31.785v-26.453c0-9.14-7.439-16.576-16.583-16.576h-38.62c-9.144 0-16.583 7.436-16.583 16.576v149.333h-3.223c-2.911 0-5.678 1.269-7.578 3.475-1.9 2.207-2.744 5.131-2.312 8.01l48.948 326.091c.735 4.895 4.939 8.516 9.889 8.516h291.104c4.949 0 9.154-3.621 9.889-8.515l22.417-149.298c.82-5.462-2.943-10.554-8.404-11.374-5.46-.824-10.554 2.943-11.374 8.404l-8.222 54.761c-99.501-32.075-200.21-32.075-299.711-.001l-33.033-220.069h95.755c4.982 43.632 42.148 77.639 87.118 77.639 44.984 0 82.162-34.007 87.146-77.639h95.708l-12.44 80.685c-.841 5.458 2.901 10.565 8.359 11.407.517.08 1.029.118 1.536.118 4.85 0 9.109-3.536 9.871-8.478l14.216-92.209c.446-2.884-.391-5.818-2.291-8.034zm-55.245 256.637-9.905 65.965h-273.883l-9.902-65.966c97.486-32.109 196.205-32.108 293.69.001zm-286.338-260.126h-31.785v-145.909h31.785zm51.785 0h-31.785v-102.88h31.785zm51.814 67.317c-19.089-11.973-31.814-33.183-31.814-57.317v-155.909h31.814zm51.785 8.419c-5.105 1.233-10.428 1.903-15.907 1.903-5.469 0-10.782-.668-15.878-1.898v-151.664h31.785zm20-8.427v-213.218h31.786l.028 155.909c0 24.129-12.724 45.334-31.814 57.309zm83.6-67.309h-31.787l-.018-102.879h31.805zm51.785 0h-31.785v-145.909h31.785z"/><path d="m429.984 302.564c-5.523 0-10 4.477-10 10v.057c0 5.523 4.477 9.972 10 9.972s10-4.505 10-10.028-4.477-10.001-10-10.001z"/></g></g></svg>