<svg id="Capa_1" enable-background="new 0 0 512 512" height="512" viewBox="0 0 512 512" width="512" xmlns="http://www.w3.org/2000/svg"><g><path d="m458.091 169.398c-1.9-2.215-4.672-3.49-7.591-3.49h-3.223v-149.332c0-9.14-7.439-16.576-16.583-16.576h-38.619c-9.144 0-16.583 7.436-16.583 16.576v26.453h-31.809l-.005-26.453c0-9.14-7.439-16.576-16.583-16.576h-38.619c-9.144 0-16.583 7.436-16.583 16.576v53.41h-31.785v-53.41c0-9.14-7.452-16.576-16.612-16.576h-38.59c-9.16 0-16.612 7.436-16.612 16.576v26.453h-31.785v-26.453c0-9.14-7.439-16.576-16.583-16.576h-38.62c-9.144 0-16.583 7.436-16.583 16.576v149.333h-3.223c-2.911 0-5.678 1.269-7.578 3.475-1.9 2.207-2.744 5.131-2.312 8.01l48.948 326.091c.735 4.895 4.939 8.516 9.889 8.516h291.104c4.949 0 9.154-3.621 9.889-8.515l22.417-149.298c.82-5.462-2.943-10.554-8.404-11.374-5.46-.824-10.554 2.943-11.374 8.404l-8.222 54.761c-99.501-32.075-200.21-32.075-299.711-.001l-33.033-220.069h95.755c4.982 43.632 42.148 77.639 87.118 77.639 44.984 0 82.162-34.007 87.146-77.639h95.708l-12.44 80.685c-.841 5.458 2.901 10.565 8.359 11.407.517.08 1.029.118 1.536.118 4.85 0 9.109-3.536 9.871-8.478l14.216-92.209c.446-2.884-.391-5.818-2.291-8.034zm-55.245 256.637-9.905 65.965h-273.883l-9.902-65.966c97.486-32.109 196.205-32.108 293.69.001zm-286.338-260.126h-31.785v-145.909h31.785zm51.785 0h-31.785v-102.88h31.785zm51.814 67.317c-19.089-11.973-31.814-33.183-31.814-57.317v-155.909h31.814zm51.785 8.419c-5.105 1.233-10.428 1.903-15.907 1.903-5.469 0-10.782-.668-15.878-1.898v-151.664h31.785zm20-8.427v-213.218h31.786l.028 155.909c0 24.129-12.724 45.334-31.814 57.309zm83.6-67.309h-31.787l-.018-102.879h31.805zm51.785 0h-31.785v-145.909h31.785z"/><path d="m429.984 302.564c-5.523 0-10 4.477-10 10v.057c0 5.523 4.477 9.972 10 9.972s10-4.505 10-10.028-4.477-10.001-10-10.001z"/></g></svg>