<?xml version="1.0" encoding="iso-8859-1"?>
<!-- Generator: Adobe Illustrator 19.0.0, SVG Export Plug-In . SVG Version: 6.00 Build 0)  -->
<svg version="1.1" id="Capa_1" xmlns="http://www.w3.org/2000/svg" xmlns:xlink="http://www.w3.org/1999/xlink" x="0px" y="0px"
	 viewBox="0 0 480 480" style="enable-background:new 0 0 480 480;" xml:space="preserve">
<g>
	<g>
		<path d="M432,199.996h-2.16c-25.84-58.48-99.44-96-189.84-96s-164,37.52-189.84,96H48c-26.51,0-48,21.49-48,48
			c0,26.51,21.49,48,48,48h1.44L72,370.316c1.056,3.498,4.349,5.836,8,5.68h320c3.651,0.156,6.944-2.182,8-5.68l22.56-74.32H432
			c26.51,0,48-21.49,48-48C480,221.487,458.51,199.996,432,199.996z M394.08,359.996H85.92l-20.72-67.36
			c6.822-2.635,12.951-6.794,17.92-12.16c21.686,26.954,61.117,31.224,88.071,9.538c2.861-2.302,5.514-4.851,7.929-7.618
			c26.1,33.491,74.408,39.482,107.898,13.382c4.995-3.892,9.489-8.387,13.382-13.382c22.747,26.065,62.317,28.755,88.382,6.009
			c2.767-2.414,5.316-5.068,7.618-7.929c4.969,5.366,11.098,9.525,17.92,12.16L394.08,359.996z M432,279.996
			c-1.964-0.001-3.922-0.215-5.84-0.64c-9.849-1.859-18.258-8.225-22.72-17.2c-1.371-2.8-4.243-4.548-7.36-4.48
			c-3.123,0.097-5.903,2.003-7.12,4.88c-11.218,22.646-38.671,31.911-61.317,20.693c-8.646-4.283-15.718-11.19-20.203-19.733
			c-1.336-2.889-4.258-4.711-7.44-4.64c-3.171,0.08-5.996,2.025-7.2,4.96c-9.552,20.344-30.341,33.007-52.8,32.16
			c-22.422,0.875-43.201-11.718-52.8-32c-1.204-2.935-4.029-4.88-7.2-4.96c-3.125-0.008-5.968,1.804-7.28,4.64
			c-7.699,15.326-23.576,24.809-40.72,24.32c-17.509,0.464-33.615-9.539-40.96-25.44c-1.217-2.877-3.997-4.783-7.12-4.88
			c-3.117-0.068-5.989,1.68-7.36,4.48c-4.462,8.975-12.871,15.341-22.72,17.2c-1.918,0.425-3.876,0.639-5.84,0.64
			c-17.673,0-32-14.327-32-32s14.327-32,32-32c1.964,0.001,3.922,0.215,5.84,0.64c3.814,0.715,7.591-1.409,8.96-5.04
			c20.96-55.68,90.48-91.6,177.2-91.6s156.24,35.92,177.2,91.6c1.369,3.631,5.146,5.755,8.96,5.04
			c1.918-0.425,3.876-0.639,5.84-0.64c17.673,0,32,14.327,32,32S449.673,279.996,432,279.996z"/>
	</g>
</g>
<g>
	<g>
		<path d="M240,151.996c-4.418,0-8,3.582-8,8v32c0,4.418,3.582,8,8,8s8-3.582,8-8v-32C248,155.578,244.418,151.996,240,151.996z"/>
	</g>
</g>
<g>
	<g>
		<path d="M195.6,152.876c-3.933-1.975-8.723-0.403-10.72,3.52l-16,32c-1.975,3.933-0.402,8.723,3.52,10.72
			c1.107,0.592,2.345,0.895,3.6,0.88c3.012-0.009,5.764-1.71,7.12-4.4l16-32C201.095,159.663,199.523,154.873,195.6,152.876z"/>
	</g>
</g>
<g>
	<g>
		<path d="M311.12,188.396l-16-32c-2.278-3.786-7.194-5.008-10.979-2.73c-3.398,2.044-4.785,6.269-3.261,9.93l16,32
			c1.356,2.69,4.108,4.391,7.12,4.4c1.255,0.015,2.493-0.288,3.6-0.88C311.523,197.12,313.095,192.33,311.12,188.396z"/>
	</g>
</g>
<g>
	<g>
		<path d="M120,327.996h-16c-4.418,0-8,3.582-8,8s3.582,8,8,8h16c4.418,0,8-3.582,8-8S124.418,327.996,120,327.996z"/>
	</g>
</g>
<g>
	<g>
		<path d="M216,327.996h-64c-4.418,0-8,3.582-8,8s3.582,8,8,8h64c4.418,0,8-3.582,8-8S220.418,327.996,216,327.996z"/>
	</g>
</g>
<g>
</g>
<g>
</g>
<g>
</g>
<g>
</g>
<g>
</g>
<g>
</g>
<g>
</g>
<g>
</g>
<g>
</g>
<g>
</g>
<g>
</g>
<g>
</g>
<g>
</g>
<g>
</g>
<g>
</g>
</svg>
