<?xml version="1.0" encoding="iso-8859-1"?>
<!-- Generator: Adobe Illustrator 19.0.0, SVG Export Plug-In . SVG Version: 6.00 Build 0)  -->
<svg version="1.1" id="Capa_1" xmlns="http://www.w3.org/2000/svg" xmlns:xlink="http://www.w3.org/1999/xlink" x="0px" y="0px"
	 viewBox="0 0 512 512" style="enable-background:new 0 0 512 512;" xml:space="preserve">
<polygon style="fill:#B5554E;" points="426.667,392.529 85.333,392.529 51.2,281.596 460.8,281.596 "/>
<g>
	<path style="fill:#FFD782;" d="M460.8,221.863c-2.603,0.043-5.205,0.299-7.765,0.768C428.715,158.204,349.867,119.463,256,119.463
		S83.285,158.204,58.965,222.631c-2.56-0.478-5.163-0.734-7.765-0.768c-23.561,0-42.667,19.106-42.667,42.667
		s19.106,42.667,42.667,42.667c2.603-0.043,5.205-0.299,7.765-0.768c13.15-2.5,24.371-11.034,30.293-23.04
		c9.19,19.934,29.244,32.606,51.2,32.341c21.641,0.435,41.591-11.665,51.2-31.061c11.52,24.943,36.881,40.55,64.341,39.595
		c27.401,0.887,52.668-14.711,64.171-39.595c14.609,28.1,49.229,39.031,77.329,24.422c10.889-5.666,19.678-14.669,25.071-25.702
		c5.922,12.006,17.143,20.54,30.293,23.04c2.62,0.478,5.274,0.734,7.936,0.768c23.561,0,42.667-19.106,42.667-42.667
		S484.361,221.863,460.8,221.863z"/>
	<path style="fill:#FFD782;" d="M256,332.796c-25.361,0.375-49.382-11.349-64.683-31.573c-24.26,27.802-66.475,30.669-94.276,6.409
		c-2.953-2.577-5.666-5.402-8.124-8.457c-7.467,8.098-17.34,13.577-28.16,15.616c-3.149,0.597-6.349,0.913-9.557,0.939
		c-28.279,0-51.2-22.921-51.2-51.2s22.921-51.2,51.2-51.2h2.304c27.563-62.379,106.069-102.4,202.496-102.4
		s174.933,40.021,202.496,102.4h2.304c28.279,0,51.2,22.921,51.2,51.2s-22.921,51.2-51.2,51.2c-3.149-0.043-6.289-0.358-9.387-0.939
		c-10.795-2.057-20.634-7.535-28.075-15.616c-23.134,28.749-65.195,33.306-93.943,10.172c-3.055-2.458-5.879-5.171-8.457-8.124
		C305.587,321.515,281.446,333.257,256,332.796z M192.256,263.335l7.424,18.261c10.24,21.632,32.401,35.064,56.32,34.133
		c23.919,0.93,46.08-12.501,56.32-34.133l7.424-18.091l8.533,17.749c12.535,23.868,42.035,33.058,65.903,20.523
		c9.114-4.787,16.478-12.331,21.052-21.547l7.253-17.067l8.533,16.469c4.762,9.574,13.73,16.367,24.235,18.347
		c1.826,0.41,3.678,0.631,5.547,0.683c18.85,0,34.133-15.283,34.133-34.133s-15.283-34.133-34.133-34.133
		c-2.099,0-4.181,0.23-6.229,0.683l-6.997,1.28l-2.56-6.656c-22.357-59.392-96.512-97.707-189.013-97.707
		S89.344,166.311,66.987,225.703l-2.56,6.656l-6.997-1.28c-2.048-0.461-4.13-0.683-6.229-0.683
		c-18.85,0-34.133,15.283-34.133,34.133S32.35,298.663,51.2,298.663c2.099,0,4.181-0.23,6.229-0.683
		c10.505-1.98,19.473-8.772,24.235-18.347l8.533-16.469l7.253,17.067c7.834,16.777,24.832,27.349,43.349,26.965
		c18.261,0.427,35.123-9.754,43.264-26.112L192.256,263.335z"/>
</g>
<g>
	<path style="fill:#DD3E46;" d="M256,213.329c-4.71,0-8.533-3.823-8.533-8.533v-34.133c0-4.71,3.823-8.533,8.533-8.533
		c4.71,0,8.533,3.823,8.533,8.533v34.133C264.533,209.506,260.71,213.329,256,213.329z"/>
	<path style="fill:#DD3E46;" d="M187.733,213.329c-1.34,0.017-2.662-0.307-3.84-0.939c-4.181-2.133-5.862-7.236-3.755-11.435
		l17.067-34.133c1.809-4.352,6.81-6.409,11.162-4.599c4.352,1.809,6.409,6.81,4.599,11.162c-0.162,0.384-0.35,0.759-0.563,1.118
		l-17.067,34.133C193.886,211.503,190.95,213.312,187.733,213.329z"/>
	<path style="fill:#DD3E46;" d="M324.267,213.329c-3.217-0.009-6.153-1.826-7.595-4.693l-17.067-34.133
		c-1.809-4.352,0.247-9.344,4.599-11.162c3.908-1.63,8.414-0.145,10.59,3.482l17.067,34.133c2.108,4.198,0.427,9.301-3.755,11.435
		C326.929,213.022,325.606,213.338,324.267,213.329z"/>
</g>
<g>
	<path style="fill:#FDBD40;" d="M128,366.929h-17.067c-4.71,0-8.533-3.823-8.533-8.533s3.823-8.533,8.533-8.533H128
		c4.71,0,8.533,3.823,8.533,8.533S132.71,366.929,128,366.929z"/>
	<path style="fill:#FDBD40;" d="M230.4,366.929h-68.267c-4.71,0-8.533-3.823-8.533-8.533s3.823-8.533,8.533-8.533H230.4
		c4.71,0,8.533,3.823,8.533,8.533S235.11,366.929,230.4,366.929z"/>
</g>
<path d="M460.8,213.329h-2.304c-27.563-62.379-106.069-102.4-202.496-102.4s-174.933,40.021-202.496,102.4H51.2
	c-28.279,0-51.2,22.921-51.2,51.2s22.921,51.2,51.2,51.2h1.536L76.8,395.004c1.126,3.729,4.642,6.229,8.533,6.059h341.333
	c3.891,0.171,7.407-2.33,8.533-6.059l24.064-79.275h1.536c28.279,0,51.2-22.921,51.2-51.2S489.079,213.329,460.8,213.329z
	 M420.352,383.996H91.648l-22.101-71.851c7.279-2.807,13.815-7.245,19.115-12.971c23.134,28.749,65.195,33.306,93.943,10.172
	c3.055-2.458,5.879-5.171,8.457-8.124c27.836,35.721,79.369,42.112,115.089,14.276c5.325-4.156,10.121-8.943,14.276-14.276
	c24.26,27.802,66.475,30.669,94.276,6.409c2.953-2.577,5.666-5.402,8.124-8.457c5.299,5.726,11.836,10.163,19.115,12.971
	L420.352,383.996z M460.8,298.663c-2.099,0-4.181-0.23-6.229-0.683c-10.505-1.98-19.473-8.772-24.235-18.347
	c-1.459-2.987-4.523-4.855-7.851-4.779c-3.328,0.102-6.298,2.133-7.595,5.205c-11.964,24.158-41.25,34.039-65.408,22.076
	c-9.225-4.565-16.768-11.938-21.547-21.052c-1.425-3.081-4.54-5.026-7.936-4.949c-3.379,0.085-6.391,2.159-7.68,5.291
	c-10.189,21.7-32.367,35.209-56.32,34.304c-23.919,0.93-46.08-12.501-56.32-34.133c-1.289-3.132-4.301-5.205-7.68-5.291l0,0
	c-3.337-0.009-6.366,1.929-7.765,4.949c-8.209,16.35-25.148,26.462-43.435,25.941c-18.679,0.495-35.857-10.172-43.691-27.136
	c-1.297-3.072-4.267-5.103-7.595-5.205c-3.328-0.077-6.391,1.792-7.851,4.779c-4.762,9.574-13.73,16.367-24.235,18.347
	c-2.048,0.452-4.13,0.674-6.229,0.683c-18.85,0-34.133-15.283-34.133-34.133S32.35,230.396,51.2,230.396
	c2.099,0,4.181,0.23,6.229,0.683c4.07,0.759,8.098-1.502,9.557-5.376c22.357-59.392,96.512-97.707,189.013-97.707
	s166.656,38.315,189.013,97.707c1.459,3.874,5.487,6.135,9.557,5.376c2.048-0.461,4.13-0.683,6.229-0.683
	c18.85,0,34.133,15.283,34.133,34.133S479.65,298.663,460.8,298.663z"/>
<path d="M256,162.129c-4.71,0-8.533,3.823-8.533,8.533v34.133c0,4.71,3.823,8.533,8.533,8.533c4.71,0,8.533-3.823,8.533-8.533
	v-34.133C264.533,165.944,260.71,162.129,256,162.129z"/>
<path d="M208.64,163.068c-4.198-2.108-9.301-0.427-11.435,3.755l-17.067,34.133c-2.108,4.198-0.427,9.301,3.755,11.435
	c1.178,0.631,2.5,0.956,3.84,0.939c3.217-0.009,6.153-1.826,7.595-4.693l17.067-34.133
	C214.502,170.304,212.821,165.193,208.64,163.068z"/>
<path d="M314.795,166.823c-2.432-4.036-7.671-5.342-11.708-2.91c-3.627,2.185-5.103,6.69-3.482,10.59l17.067,34.133
	c1.442,2.867,4.378,4.685,7.595,4.693c1.34,0.017,2.662-0.307,3.84-0.939c4.181-2.133,5.862-7.236,3.755-11.435L314.795,166.823z"/>
<path d="M128,349.863h-17.067c-4.71,0-8.533,3.823-8.533,8.533s3.823,8.533,8.533,8.533H128c4.71,0,8.533-3.823,8.533-8.533
	S132.71,349.863,128,349.863z"/>
<path d="M230.4,349.863h-68.267c-4.71,0-8.533,3.823-8.533,8.533s3.823,8.533,8.533,8.533H230.4c4.71,0,8.533-3.823,8.533-8.533
	S235.11,349.863,230.4,349.863z"/>
<g>
</g>
<g>
</g>
<g>
</g>
<g>
</g>
<g>
</g>
<g>
</g>
<g>
</g>
<g>
</g>
<g>
</g>
<g>
</g>
<g>
</g>
<g>
</g>
<g>
</g>
<g>
</g>
<g>
</g>
</svg>
