<svg id="Capa_1" enable-background="new 0 0 512 512" height="512" viewBox="0 0 512 512" width="512" xmlns="http://www.w3.org/2000/svg"><g><path d="m328.631 29.289c-1.876-1.875-4.419-2.929-7.071-2.929s-5.196 1.054-7.071 2.929l-113.554 113.563c-11.909-29.543-43.081-50.314-44.438-51.206-3.292-2.166-7.549-2.194-10.872-.078-.521.332-10.604 6.817-21.465 17.609-12.899-12.3-29.912-19.177-48.16-19.177-38.598 0-70 31.401-70 70 0 25.941 14.28 49.52 36.839 61.652.817 6.723 2.276 12.844 4.356 18.348h-37.195c-2.951 0-5.75 1.303-7.65 3.561-1.9 2.257-2.707 5.238-2.203 8.146 14.815 85.57 78.408 165.59 155.853 197.132v53.161c0 5.522 4.477 10 10 10h45.001c5.523 0 10-4.478 10-10s-4.477-10-10-10h-35.001v-40h160v40h-34.999c-5.522 0-10 4.478-10 10s4.478 10 10 10h44.999c5.522 0 10-4.478 10-10v-53.161c77.445-31.541 141.038-111.56 155.854-197.133.503-2.907-.303-5.889-2.203-8.146-1.9-2.258-4.7-3.561-7.65-3.561h-28.917c1.922-6.459 2.917-13.198 2.917-20 0-.341-.018-.69-.023-1.034 33.76-32.405 40.586-82.772 12.212-111.158-27.298-27.286-76.464-22.526-109.591 10.602-2.171 2.165-4.25 4.445-6.232 6.813-5.323-2.194-10.91-3.71-16.618-4.523 6.846-32.712-3.149-67.442-27.118-91.41zm-7.52 21.663c15.232 19.689 20.531 45.732 14.055 69.896-30.621 4.74-54.448 29.201-58.542 59.769-6.384.848-12.565 2.572-18.426 5.116-.961-6.275-1.971-10.327-2.041-10.607-.768-3.045-2.92-5.552-5.813-6.771-.617-.26-15.293-6.387-31.38-8.239-2.057-.237-3.879-.787-5.491-1.516zm-189.434 79.532c6.774-8.041 14.301-14.365 19.245-18.142 8.763 6.849 25.69 21.837 32.143 39.744 5.37 14.874 17.82 26.082 33.611 27.898 8.226.947 16.238 3.347 21.121 5.025.751 4.116 1.693 10.424 2.035 17.595.546 11.51-.393 26.774-7.263 37.396h-61.57l21.072-28.101c3.313-4.418 2.417-10.687-2.001-13.999-4.418-3.316-10.688-2.417-14 2.001l-24.809 33.083-24.06-34.217c-3.176-4.517-9.414-5.607-13.932-2.428-4.518 3.176-5.605 9.414-2.428 13.932l20.903 29.729h-62.329c-4.068-6.289-6.479-14.845-7.166-25.534-.773-11.805.813-23.186 1.956-29.457 4.855-1.671 12.798-4.051 20.979-5.007 15.278-1.791 28.164-12.556 33.632-28.102 2.455-6.998 6.782-14.203 12.861-21.416zm-85.833 44.638c-.138.546-2.394 9.628-3.364 21.994-10.315-9.32-16.48-22.709-16.48-37.116 0-27.57 22.43-50 50-50 13.364 0 25.792 5.178 35.086 14.39-4.953 6.9-8.69 13.899-11.14 20.882-2.955 8.401-9.344 13.959-17.087 14.866-16.03 1.873-30.594 7.961-31.206 8.219-2.89 1.219-5.04 3.724-5.809 6.765zm443.942 84.868c-17.53 76.173-75.886 145.602-145.614 172.01h-176.343c-69.729-26.408-128.085-95.837-145.614-172.01zm-97.054-127.428c25.34-25.342 61.819-30.099 81.316-10.612 17.309 17.318 15.482 48.013-2.899 72.43-10.35-26.343-35.898-44.38-65.149-44.38-.965 0-1.9.041-2.803.107-3.782-5.438-8.292-10.303-13.387-14.461.952-1.052 1.921-2.086 2.922-3.084zm-3.338 33.138c2.006 3.569 5.983 5.556 10.045 5.011 2.589-.348 4.681-.711 6.562-.711 26.9 0 50 22.039 50 50 0 6.914-1.45 13.726-4.188 20h-196.96c3.487-9.199 5.184-20.128 5.098-32.68 7.824-4.797 16.734-7.32 26.049-7.32 5.522 0 10-4.478 10-10 0-26.589 20.766-48.514 47.308-49.924.029-.002.058-.002.088-.004 18.866-1.001 36.575 8.866 45.998 25.628z"/><path d="m196 80c22.056 0 40-17.944 40-40s-17.944-40-40-40-40 17.944-40 40 17.944 40 40 40zm0-60c11.028 0 20 8.972 20 20s-8.972 20-20 20-20-8.972-20-20 8.972-20 20-20z"/><circle cx="256.001" cy="502" r="10"/></g></svg>