<?xml version="1.0" encoding="iso-8859-1"?>
<!-- Generator: Adobe Illustrator 19.0.0, SVG Export Plug-In . SVG Version: 6.00 Build 0)  -->
<svg version="1.1" id="Capa_1" xmlns="http://www.w3.org/2000/svg" xmlns:xlink="http://www.w3.org/1999/xlink" x="0px" y="0px"
	 viewBox="0 0 512 512" style="enable-background:new 0 0 512 512;" xml:space="preserve">
<g>
	<g>
		<path d="M135.069,332.43c-1.859-1.86-4.439-2.93-7.069-2.93s-5.21,1.069-7.07,2.93c-1.86,1.861-2.93,4.44-2.93,7.07
			s1.069,5.21,2.93,7.069c1.86,1.861,4.44,2.931,7.07,2.931s5.21-1.07,7.069-2.931c1.86-1.859,2.931-4.439,2.931-7.069
			S136.93,334.29,135.069,332.43z"/>
	</g>
</g>
<g>
	<g>
		<path d="M393.041,109.726l-17.169-36.321c3.861-1.385,6.628-5.067,6.628-9.405c0-5.523-4.478-10-10-10h-76.366l4.419-26.135
			c1.175-6.946-0.76-14.017-5.308-19.397C290.698,3.086,284.049,0,277.004,0h-42.008c-7.045,0-13.694,3.086-18.241,8.467
			c-4.548,5.381-6.482,12.451-5.308,19.397L215.866,54H139.5c-5.522,0-10,4.477-10,10c0,4.338,2.767,8.02,6.629,9.405l-17.17,36.321
			C118.327,111.063,118,112.522,118,114v181.5c0,5.522,4.478,10,10,10c5.522,0,10-4.478,10-10V124h167.667c5.522,0,10-4.477,10-10
			s-4.478-10-10-10H143.788l14.182-30h196.06L374,116.245V442H138v-64c0-5.522-4.478-10-10-10c-5.522,0-10,4.478-10,10v74
			c0,1.478,0.327,2.938,0.959,4.273l17.53,37.083c-2.98,1.732-4.989,4.95-4.989,8.644c0,5.522,4.478,10,10,10h10.136h208.729H370.5
			c5.522,0,10-4.478,10-10c0-3.694-2.009-6.912-4.988-8.644l17.529-37.083c0.632-1.336,0.959-2.796,0.959-4.273V114
			C394,112.522,393.673,111.063,393.041,109.726z M280.832,24.53L275.85,54h-39.7l-4.982-29.47
			c-0.262-1.546,0.428-2.639,0.862-3.153c0.434-0.514,1.398-1.377,2.966-1.377h42.008c1.568,0,2.531,0.862,2.966,1.376
			C280.405,21.89,281.094,22.983,280.832,24.53z M354.03,492H157.97l-14.182-30h224.424L354.03,492z"/>
	</g>
</g>
<g>
	<g>
		<path d="M352.71,106.93c-1.851-1.86-4.431-2.93-7.07-2.93c-2.63,0-5.2,1.07-7.07,2.93c-1.859,1.86-2.93,4.44-2.93,7.07
			s1.07,5.21,2.93,7.07c1.87,1.86,4.44,2.93,7.07,2.93c2.639,0,5.219-1.07,7.07-2.93c1.87-1.86,2.939-4.44,2.939-7.07
			S354.58,108.79,352.71,106.93z"/>
	</g>
</g>
<g>
	<g>
		<path d="M258.667,27h-5.334c-5.522,0-10,4.477-10,10s4.478,10,10,10h5.334c5.522,0,10-4.477,10-10S264.189,27,258.667,27z"/>
	</g>
</g>
<g>
	<g>
		<path d="M256,199c-46.317,0-84,37.682-84,84c0,46.317,37.683,84,84,84s84-37.683,84-84C340,236.682,302.317,199,256,199z M256,347
			c-35.29,0-64-28.71-64-64c0-35.29,28.71-64,64-64c35.29,0,64,28.71,64,64C320,318.29,291.29,347,256,347z"/>
	</g>
</g>
<g>
</g>
<g>
</g>
<g>
</g>
<g>
</g>
<g>
</g>
<g>
</g>
<g>
</g>
<g>
</g>
<g>
</g>
<g>
</g>
<g>
</g>
<g>
</g>
<g>
</g>
<g>
</g>
<g>
</g>
</svg>
