<svg height="512pt" viewBox="0 -86 512 512" width="512pt" xmlns="http://www.w3.org/2000/svg"><path d="m310 10h-108c-106.039062 0-192 85.960938-192 192v74c0 29.824219 24.175781 54 54 54s54-24.175781 54-54v-33zm0 0" fill="#ffcb7c"/><path d="m78.207031 321.519531c-30.351562-17.453125-38.054687-57.824219-16.261719-85.226562 13.300782-16.726563 16.175782-39.476563 7.445313-58.984375-14.292969-31.960938 3.203125-69.152344 36.941406-78.511719 20.59375-5.714844 36.289063-22.429687 40.695313-43.34375 7.21875-34.257813 43.238281-54.0625 76.03125-41.804687l-62.34375 307.875h-82.507813zm0 0" fill="#cbe558"/><path d="m118 144c-32.03125 0-58 25.96875-58 58s25.96875 58 58 58zm0 0" fill="#ff6977"/><path d="m64 330h384c29.824219 0 54-24.175781 54-54v-74c0-106.039062-85.960938-192-192-192s-192 85.960938-192 192v74c0 29.824219-24.175781 54-54 54zm0 0" fill="#ffd89e"/><g fill="#ffc15a"><path d="m447.132812 181.304688c0 13.25-10.746093 23.996093-23.996093 23.996093-13.253907 0-23.996094-10.746093-23.996094-23.996093 0-13.253907 10.742187-23.996094 23.996094-23.996094 13.25 0 23.996093 10.742187 23.996093 23.996094zm0 0"/><path d="m280.121094 256.566406c0 13.253906-10.742188 23.996094-23.992188 23.996094-13.253906 0-23.996094-10.742188-23.996094-23.996094s10.742188-23.996094 23.996094-23.996094c13.25 0 23.992188 10.742188 23.992188 23.996094zm0 0"/><path d="m303.996094 114.128906c0 13.25-10.742188 23.992188-23.996094 23.992188s-23.996094-10.742188-23.996094-23.992188c0-13.253906 10.742188-23.996094 23.996094-23.996094s23.996094 10.742188 23.996094 23.996094zm0 0"/></g><path d="m414.027344 214.058594c3.027344.839844 6.101562 1.253906 9.160156 1.253906 5.78125 0 11.496094-1.488281 16.667969-4.410156 7.90625-4.464844 13.601562-11.746094 16.03125-20.492188 2.433593-8.75 1.3125-17.921875-3.152344-25.828125-9.222656-16.320312-30-22.097656-46.324219-12.878906-7.902344 4.46875-13.597656 11.746094-16.027344 20.496094-2.433593 8.75-1.3125 17.921875 3.152344 25.828125 4.46875 7.90625 11.746094 13.597656 20.492188 16.03125zm-4.378906-36.503906c1.003906-3.601563 3.347656-6.597657 6.601562-8.4375 2.171875-1.226563 4.53125-1.808594 6.859375-1.808594 4.886719 0 9.640625 2.5625 12.210937 7.109375 1.839844 3.253906 2.300782 7.03125 1.296876 10.632812-1 3.601563-3.34375 6.597657-6.597657 8.4375-3.257812 1.839844-7.035156 2.300781-10.632812 1.296875-3.605469-1-6.601563-3.34375-8.4375-6.597656-1.839844-3.253906-2.300781-7.03125-1.300781-10.632812zm0 0"/><path d="m239.40625 226.96875c-7.90625 4.464844-13.601562 11.746094-16.035156 20.492188-2.429688 8.75-1.308594 17.921874 3.15625 25.828124 4.46875 7.90625 11.746094 13.601563 20.492187 16.03125 3.027344.839844 6.101563 1.257813 9.160157 1.257813 5.78125 0 11.496093-1.488281 16.667968-4.414063 16.320313-9.21875 22.097656-30 12.878906-46.320312-9.222656-16.320312-30-22.09375-46.320312-12.875zm23.605469 41.785156c-3.257813 1.839844-7.035157 2.300782-10.632813 1.296875-3.601562-1-6.597656-3.34375-8.4375-6.601562-1.839844-3.253907-2.300781-7.027344-1.296875-10.632813 1-3.601562 3.34375-6.597656 6.597657-8.433594 6.722656-3.800781 15.273437-1.421874 19.070312 5.300782 3.796875 6.71875 1.417969 15.273437-5.300781 19.070312zm0 0"/><path d="m309.597656 97.40625c-9.21875-16.324219-30-22.097656-46.320312-12.878906-16.320313 9.222656-22.097656 30-12.875 46.320312 6.242187 11.050782 17.785156 17.269532 29.65625 17.269532 5.660156 0 11.394531-1.414063 16.664062-4.390626 16.320313-9.222656 22.097656-30 12.875-46.320312zm-22.714844 28.90625c-6.714843 3.796875-15.269531 1.417969-19.070312-5.300781h.003906c-3.796875-6.71875-1.417968-15.273438 5.300782-19.070313s15.273437-1.417968 19.070312 5.300782c3.792969 6.71875 1.417969 15.273437-5.304688 19.070312zm0 0"/><path d="m310 0h-108c-111.382812 0-202 90.617188-202 202v74c0 35.289062 28.710938 64 64 64h259.320312c5.519532 0 10-4.476562 10-10s-4.480468-10-10-10h-212.910156c10.890625-11.480469 17.589844-26.96875 17.589844-44v-74c0-100.355469 81.644531-182 182-182s182 81.644531 182 182v74c0 24.261719-19.738281 44-44 44h-44.683594c-5.523437 0-10 4.476562-10 10s4.476563 10 10 10h44.683594c35.289062 0 64-28.710938 64-64v-74c0-111.382812-90.617188-202-202-202zm-290 276v-74c0-81.71875 54.136719-151.023438 128.429688-173.949219-5.378907 7.492188-9.238282 16.089844-11.1875 25.339844-3.648438 17.328125-16.519532 31.035156-33.585938 35.769531-17.972656 4.988282-32.679688 16.804688-41.410156 33.269532-8.101563 15.277343-9.988282 33.222656-5.332032 49.730468-4.421874 9.015625-6.914062 19.140625-6.914062 29.839844 0 9.371094 1.90625 18.308594 5.351562 26.441406-.398437.550782-.8125 1.09375-1.234374 1.625-12.203126 15.34375-17.09375 35.191406-13.417969 54.445313 2.582031 13.542969 9.230469 25.785156 18.847656 35.265625-22.179687-2.242188-39.546875-21.019532-39.546875-43.777344zm65.300781 38.484375c-.617187-.621094-1.316406-1.175781-2.109375-1.632813-11.9375-6.867187-20.265625-18.5625-22.847656-32.089843-2.257812-11.839844.09375-24 6.464844-34.078125 10.398437 11.894531 24.851562 20.15625 41.191406 22.574218v6.742188c0 16.539062-9.175781 30.96875-22.699219 38.484375zm22.699219-112.484375v46.945312c-21.683594-4.613281-38-23.90625-38-46.945312 0-25.027344 19.257812-45.628906 43.730469-47.800781-3.734375 15.332031-5.730469 31.335937-5.730469 47.800781zm11.734375-67.839844c-.566406-.097656-1.140625-.160156-1.734375-.160156-16.480469 0-31.605469 5.894531-43.390625 15.6875.566406-6.199219 2.339844-12.296875 5.308594-17.890625 6.128906-11.5625 16.460937-19.859375 29.085937-23.363281 24.292969-6.742188 42.609375-26.25 47.808594-50.917969 2.839844-13.476563 11.390625-25.011719 23.460938-31.644531 11.480468-6.3125 25-7.550782 37.398437-3.503906-45.261719 23.359374-80.605469 63.328124-97.9375 111.792968zm0 0"/><path d="m370.386719 237.613281c-3.90625-3.90625-10.234375-3.90625-14.140625 0-3.90625 3.902344-3.90625 10.234375 0 14.140625l7.816406 7.816406c1.953125 1.953126 4.511719 2.929688 7.070312 2.929688 2.558594 0 5.117188-.976562 7.070313-2.929688 3.90625-3.90625 3.90625-10.234374 0-14.140624zm0 0"/><path d="m396.386719 94.386719c3.902343-3.90625 3.902343-10.238281 0-14.144531-3.90625-3.902344-10.238281-3.902344-14.144531 0l-7 7c-3.90625 3.90625-3.90625 10.238281 0 14.144531 1.953124 1.949219 4.511718 2.925781 7.070312 2.925781s5.117188-.976562 7.070312-2.925781zm0 0"/><path d="m188.597656 159.429688-7 7c-3.90625 3.90625-3.90625 10.234374 0 14.140624 1.953125 1.953126 4.511719 2.929688 7.070313 2.929688 2.558593 0 5.117187-.976562 7.070312-2.929688l7-7c3.90625-3.902343 3.90625-10.234374 0-14.140624s-10.234375-3.90625-14.140625 0zm0 0"/><path d="m363.320312 320c-2.640624 0-5.210937 1.070312-7.082031 2.929688-1.859375 1.859374-2.929687 4.441406-2.929687 7.070312s1.070312 5.210938 2.929687 7.070312c1.871094 1.859376 4.449219 2.929688 7.082031 2.929688 2.628907 0 5.199219-1.070312 7.070313-2.929688 1.859375-1.859374 2.929687-4.441406 2.929687-7.070312s-1.070312-5.210938-2.929687-7.070312c-1.863281-1.859376-4.441406-2.929688-7.070313-2.929688zm0 0"/></svg>